<svg width="222" height="40" viewBox="0 0 222 40" fill="none" xmlns="http://www.w3.org/2000/svg">
<g clip-path="url(#clip0_234_44)">
<path fill-rule="evenodd" clip-rule="evenodd" d="M2.63459 26.7288L0.977876 27.5564C0.0344681 28.0293 -0.276166 29.0736 0.276073 29.8716C0.828311 30.6795 2.04784 30.9455 2.97974 30.4726L4.63646 29.645C5.57987 29.1721 5.8905 28.1278 5.33826 27.3298C4.78602 26.5219 3.5665 26.2559 2.63459 26.7288Z" fill="#FFE600"/>
<path fill-rule="evenodd" clip-rule="evenodd" d="M25.6906 22.995L23.0905 19.2019C21.2152 16.463 22.2967 12.9162 25.4951 11.3201L35.1592 6.47281C38.7948 4.65015 37.3337 0.47281 32.5131 0.0885738C28.1297 -0.266106 23.5852 0.512219 19.501 2.57133L6.46583 9.11321C5.52243 9.58611 5.21179 10.6304 5.76403 11.4285C6.31627 12.2364 7.5358 12.5024 8.4677 12.0295L11.5855 10.463C12.529 9.99005 13.737 10.2659 14.2892 11.0639C14.8415 11.8718 14.5193 12.9063 13.5874 13.3792L5.10825 17.6354C4.16484 18.1083 3.8542 19.1526 4.40644 19.9506C4.95868 20.7585 6.17821 21.0245 7.11011 20.5516L9.50315 19.3497C10.4466 18.8768 11.6546 19.1526 12.2068 19.9506C12.7591 20.7585 12.4369 21.793 11.505 22.2659C9.90582 23.0738 9.71024 23.1625 8.11105 23.9703C7.16764 24.4433 6.857 25.4876 7.40924 26.2856C7.96148 27.0935 9.18101 27.3595 10.1129 26.8866L14.8415 24.5122C15.7734 24.0393 16.9929 24.3152 17.5451 25.1132C18.0974 25.9211 17.7752 26.9556 16.8433 27.4285L5.60296 33.0738C4.67106 33.5467 4.34892 34.591 4.90116 35.3891C5.4534 36.1871 6.67292 36.463 7.60483 35.9901L24.287 27.6157C26.1739 26.6699 26.8066 24.6009 25.7022 22.9851L25.6906 22.995Z" fill="#FFE600"/>
<path fill-rule="evenodd" clip-rule="evenodd" d="M47.9297 7.4877C46.5261 5.87193 44.3977 5.75371 42.4649 6.72907L36.7239 9.61577C34.8371 10.5616 34.2043 12.6306 35.3088 14.2463L37.8974 18.0394C39.7727 20.7783 38.6912 24.3251 35.4929 25.9212C28.9925 29.1823 27.5774 29.8916 21.0771 33.1527C20.1452 33.6256 19.8231 34.67 20.3753 35.468C20.9276 36.2759 22.1471 36.5419 23.079 36.069L31.8113 31.6847C32.7547 31.2118 33.9627 31.4877 34.5149 32.2857C35.0672 33.0936 34.745 34.1281 33.8131 34.601C32.5936 35.2118 31.3741 35.8227 30.1545 36.4434C29.2226 36.9163 28.9005 37.9606 29.4527 38.7586C30.005 39.5567 31.2245 39.8325 32.1564 39.3596L41.4985 34.67C51.8529 29.468 55.3274 18.0591 49.2643 9.19213C48.8501 8.59114 48.4129 8.01972 47.9412 7.47784L47.9297 7.4877Z" fill="#FFE600"/>
<path fill-rule="evenodd" clip-rule="evenodd" d="M15.3822 36.0196L13.7254 36.8471C12.782 37.32 12.4714 38.3644 13.0236 39.1624C13.5759 39.9703 14.7954 40.2363 15.7273 39.7634L17.384 38.9358C18.3274 38.4629 18.6381 37.4186 18.0858 36.6205C17.5336 35.8225 16.3141 35.5466 15.3822 36.0196Z" fill="#FFE600"/>
<path d="M60.9757 14.7142L60.9517 14.6782C61.4677 14.2342 62.1877 14.0062 63.0397 14.0062C63.0877 14.0062 63.1357 14.0062 63.1717 14.0062C66.9037 14.0182 70.6357 14.0302 74.3677 14.0422C74.3677 14.6302 74.3677 15.2182 74.3557 15.8062C70.6237 15.7942 66.8917 15.7822 63.1477 15.7702H63.1357C62.5357 15.7462 62.2597 15.8782 62.1037 16.0102C61.9477 16.1422 61.8757 16.3102 61.8637 16.5502C61.8517 16.8262 61.8997 17.1622 62.0197 17.3422C62.1397 17.5222 62.2717 17.6782 62.9077 17.6782C65.7157 17.6782 68.5237 17.6662 71.3317 17.6542C71.3437 17.6542 71.3437 17.6542 71.3557 17.6542C72.3757 17.6542 73.2037 17.9782 73.7077 18.5302C74.2237 19.1062 74.3677 19.8142 74.3557 20.3902C74.3557 20.4022 74.3557 20.4022 74.3557 20.4022C74.3437 21.0262 74.1157 21.6982 73.5877 22.2022C73.0597 22.7062 72.2677 22.9702 71.3317 22.9462C67.5877 22.9462 63.8557 22.9462 60.1117 22.9582C60.1117 22.3582 60.1117 21.7702 60.1117 21.1822C63.8677 21.1822 67.6237 21.1822 71.3677 21.1702C71.3797 21.1702 71.3797 21.1702 71.3797 21.1702C71.9677 21.1822 72.2317 21.0382 72.3757 20.9062C72.5197 20.7742 72.5917 20.5942 72.5917 20.3542C72.5917 20.1262 72.5317 19.8862 72.3997 19.7422C72.2677 19.5982 72.0277 19.4302 71.3437 19.4422C68.5477 19.4542 65.7397 19.4662 62.9317 19.4662C61.8637 19.4662 60.9997 18.9982 60.5677 18.3502C60.2077 17.8222 60.1117 17.2582 60.1117 16.7662C60.1117 16.6582 60.1117 16.5502 60.1237 16.4542C60.1717 15.8422 60.4237 15.1822 60.9757 14.7142ZM78.403 13.9942L78.475 13.9822C78.523 13.9822 78.571 13.9822 78.619 13.9822C79.975 13.9942 81.331 13.9942 82.687 13.9942C84.031 13.9942 85.387 13.9942 86.743 13.9822C86.791 13.9822 86.839 13.9822 86.887 13.9822C87.787 13.9822 88.555 14.3422 89.047 14.8582C89.563 15.4102 89.791 16.0942 89.803 16.7302C89.803 17.1742 89.803 17.7262 89.803 18.2542C89.803 19.3102 89.803 20.2942 89.803 20.2942C89.815 20.9542 89.575 21.6502 89.035 22.1662C88.495 22.6822 87.691 22.9582 86.743 22.9342C86.755 22.9342 86.767 22.9342 86.767 22.9342C85.399 22.9342 84.019 22.9342 82.639 22.9342C81.271 22.9342 79.891 22.9342 78.523 22.9342C78.523 22.9342 78.535 22.9342 78.547 22.9342C78.499 22.9342 78.463 22.9342 78.415 22.9342C77.527 22.9342 76.771 22.6582 76.255 22.1662C75.715 21.6502 75.475 20.9542 75.487 20.2942C75.487 20.2942 75.487 19.3102 75.487 18.2542C75.487 17.7262 75.487 17.1862 75.487 16.7422C75.499 16.1062 75.727 15.4222 76.243 14.8702C76.735 14.3542 77.503 13.9942 78.403 13.9942ZM78.583 15.7582H78.559C78.499 15.7582 78.427 15.7582 78.367 15.7582H78.379C77.971 15.7702 77.767 15.9022 77.599 16.0702C77.407 16.2742 77.311 16.5742 77.311 16.7902V16.8022C77.311 18.0022 77.311 19.2142 77.311 20.4142C77.311 20.5942 77.371 20.7622 77.515 20.8942C77.671 21.0382 77.947 21.1822 78.523 21.1702C78.523 21.1702 78.523 21.1702 78.535 21.1702C79.663 21.1702 80.791 21.1702 81.931 21.1702C82.183 21.1702 82.423 21.1702 82.675 21.1702C82.915 21.1702 83.167 21.1702 83.407 21.1702C84.547 21.1702 85.675 21.1702 86.815 21.1702C86.815 21.1702 86.815 21.1702 86.827 21.1702C87.403 21.1822 87.679 21.0382 87.835 20.8942C87.979 20.7622 88.039 20.5942 88.039 20.4142C88.039 19.2142 88.039 18.0022 88.039 16.8022V16.7902C88.039 16.5742 87.943 16.2742 87.751 16.0702C87.583 15.9022 87.379 15.7702 86.971 15.7582C86.911 15.7582 86.851 15.7582 86.779 15.7582C86.767 15.7582 86.767 15.7582 86.755 15.7582C85.651 15.7582 84.535 15.7582 83.419 15.7702C83.167 15.7702 82.927 15.7702 82.675 15.7702C82.435 15.7702 82.183 15.7702 81.931 15.7702C80.827 15.7582 79.711 15.7582 78.595 15.7582H78.583ZM92.0503 15.2302L92.0623 15.2422C92.7823 14.4862 93.8503 13.9942 95.1103 13.9942H95.1223C98.3143 14.0062 101.506 14.0182 104.698 14.0302C104.686 14.6182 104.686 15.2062 104.686 15.7942C101.494 15.7822 98.3023 15.7702 95.1103 15.7702C94.2823 15.7702 93.7423 16.0462 93.3343 16.4662C92.9263 16.8862 92.6743 17.4982 92.6143 18.1582C92.5423 18.9262 92.7343 19.7302 93.1423 20.2942C93.5503 20.8582 94.1383 21.2182 95.1103 21.2182C98.2903 21.2062 101.482 21.1942 104.662 21.1822C104.662 21.7702 104.674 22.3582 104.686 22.9582C101.494 22.9582 98.3023 22.9702 95.1223 22.9822C95.1103 22.9822 95.1103 22.9822 95.1103 22.9822C93.6343 22.9822 92.4343 22.2982 91.7263 21.3262C91.1143 20.4982 90.8263 19.4902 90.8263 18.4822C90.8263 18.3142 90.8383 18.1342 90.8503 17.9662C90.9463 16.9702 91.3303 15.9862 92.0503 15.2302ZM105.637 15.7942C105.637 15.2062 105.637 14.6182 105.637 14.0302C106.153 14.0302 106.681 14.0302 107.197 14.0302C107.785 14.0302 108.385 14.0302 108.985 14.0302C109.501 14.0302 110.017 14.0302 110.533 14.0302C110.533 14.6182 110.533 15.2062 110.533 15.7942C110.017 15.7942 109.501 15.7942 108.985 15.7942C108.985 17.6182 108.985 19.4422 108.985 21.2662C109.501 21.2662 110.017 21.2662 110.533 21.2662C110.533 21.8542 110.533 22.4422 110.533 23.0302C110.017 23.0302 109.501 23.0302 108.985 23.0302C108.385 23.0302 107.785 23.0302 107.197 23.0302C106.681 23.0302 106.153 23.0302 105.637 23.0302C105.637 22.4422 105.637 21.8542 105.637 21.2662C106.153 21.2662 106.681 21.2662 107.197 21.2662C107.197 19.4422 107.197 17.6182 107.197 15.7942C106.681 15.7942 106.153 15.7942 105.637 15.7942ZM114.415 13.9942L114.487 13.9822C114.535 13.9822 114.583 13.9822 114.631 13.9822C115.987 13.9942 117.343 13.9942 118.699 13.9942C120.043 13.9942 121.399 13.9942 122.755 13.9822C122.803 13.9822 122.851 13.9822 122.899 13.9822C123.799 13.9822 124.567 14.3422 125.059 14.8582C125.575 15.4102 125.803 16.0942 125.815 16.7302C125.815 17.1742 125.815 17.7262 125.815 18.2542C125.815 19.3102 125.815 20.2942 125.815 20.2942C125.827 20.9542 125.587 21.6502 125.047 22.1662C124.507 22.6822 123.703 22.9582 122.755 22.9342C122.767 22.9342 122.779 22.9342 122.779 22.9342C121.411 22.9342 120.031 22.9342 118.651 22.9342C117.283 22.9342 115.903 22.9342 114.535 22.9342C114.535 22.9342 114.547 22.9342 114.559 22.9342C114.511 22.9342 114.475 22.9342 114.427 22.9342C113.539 22.9342 112.783 22.6582 112.267 22.1662C111.727 21.6502 111.487 20.9542 111.499 20.2942C111.499 20.2942 111.499 19.3102 111.499 18.2542C111.499 17.7262 111.499 17.1862 111.499 16.7422C111.511 16.1062 111.739 15.4222 112.255 14.8702C112.747 14.3542 113.515 13.9942 114.415 13.9942ZM114.595 15.7582H114.571C114.511 15.7582 114.439 15.7582 114.379 15.7582H114.391C113.983 15.7702 113.779 15.9022 113.611 16.0702C113.419 16.2742 113.323 16.5742 113.323 16.7902V16.8022C113.323 18.0022 113.323 19.2142 113.323 20.4142C113.323 20.5942 113.383 20.7622 113.527 20.8942C113.683 21.0382 113.959 21.1822 114.535 21.1702C114.535 21.1702 114.535 21.1702 114.547 21.1702C115.675 21.1702 116.803 21.1702 117.943 21.1702C118.195 21.1702 118.435 21.1702 118.687 21.1702C118.927 21.1702 119.179 21.1702 119.419 21.1702C120.559 21.1702 121.687 21.1702 122.827 21.1702C122.827 21.1702 122.827 21.1702 122.839 21.1702C123.415 21.1822 123.691 21.0382 123.847 20.8942C123.991 20.7622 124.051 20.5942 124.051 20.4142C124.051 19.2142 124.051 18.0022 124.051 16.8022V16.7902C124.051 16.5742 123.955 16.2742 123.763 16.0702C123.595 15.9022 123.391 15.7702 122.983 15.7582C122.923 15.7582 122.863 15.7582 122.791 15.7582C122.779 15.7582 122.779 15.7582 122.767 15.7582C121.663 15.7582 120.547 15.7582 119.431 15.7702C119.179 15.7702 118.939 15.7702 118.687 15.7702C118.447 15.7702 118.195 15.7702 117.943 15.7702C116.839 15.7582 115.723 15.7582 114.607 15.7582H114.595ZM126.826 23.0182C126.826 20.0542 126.826 17.0782 126.826 14.1022C127.666 14.1022 128.518 14.1022 129.37 14.1022C131.026 15.2182 132.694 16.3222 134.35 17.4262C136.006 16.3222 137.674 15.2182 139.33 14.1022C140.182 14.1022 141.022 14.1022 141.874 14.1022C141.874 17.0782 141.874 20.0542 141.874 23.0182C141.286 23.0182 140.698 23.0182 140.11 23.0182C140.11 20.6422 140.11 18.2542 140.11 15.8782C140.026 15.8782 139.942 15.8782 139.87 15.8782C138.022 17.1022 136.186 18.3262 134.35 19.5622C132.514 18.3262 130.666 17.1022 128.83 15.8782C128.758 15.8782 128.674 15.8782 128.59 15.8782C128.59 18.2542 128.59 20.6422 128.59 23.0182C128.002 23.0182 127.414 23.0182 126.826 23.0182ZM142.904 23.0182C142.904 20.0542 142.904 17.0782 142.904 14.1022C143.744 14.1022 144.596 14.1022 145.448 14.1022C147.104 15.2182 148.772 16.3222 150.428 17.4262C152.084 16.3222 153.752 15.2182 155.408 14.1022C156.26 14.1022 157.1 14.1022 157.952 14.1022C157.952 17.0782 157.952 20.0542 157.952 23.0182C157.364 23.0182 156.776 23.0182 156.188 23.0182C156.188 20.6422 156.188 18.2542 156.188 15.8782C156.104 15.8782 156.02 15.8782 155.948 15.8782C154.1 17.1022 152.264 18.3262 150.428 19.5622C148.592 18.3262 146.744 17.1022 144.908 15.8782C144.836 15.8782 144.752 15.8782 144.668 15.8782C144.668 18.2542 144.668 20.6422 144.668 23.0182C144.08 23.0182 143.492 23.0182 142.904 23.0182ZM160.218 15.2422L160.23 15.2662C160.95 14.5102 162.018 14.0182 163.278 14.0182C163.278 14.0182 163.278 14.0182 163.29 14.0182C166.482 14.0302 169.674 14.0422 172.866 14.0422C172.854 14.6422 172.854 15.2302 172.854 15.8182C169.662 15.8062 166.47 15.7942 163.278 15.7822C162.45 15.7822 161.91 16.0582 161.502 16.4782C161.214 16.7902 160.998 17.1982 160.878 17.6542C164.886 17.6542 168.882 17.6542 172.89 17.6542C172.89 18.2422 172.89 18.8302 172.89 19.4302C168.894 19.4302 164.898 19.4302 160.902 19.4302C160.986 19.7542 161.13 20.0542 161.31 20.3062C161.718 20.8702 162.306 21.2302 163.278 21.2302C166.458 21.1942 169.638 21.1582 172.83 21.1222C172.83 21.7102 172.842 22.2982 172.842 22.8982C169.662 22.9222 166.47 22.9582 163.278 22.9942C161.802 22.9942 160.602 22.3102 159.894 21.3382C159.282 20.5102 158.994 19.5022 158.994 18.4942C158.994 18.3262 158.994 18.1462 159.018 17.9782C159.114 16.9822 159.498 15.9982 160.218 15.2422ZM173.901 14.0182L173.913 14.0542C173.913 14.0422 173.913 14.0302 173.913 14.0182C177.645 14.0302 181.377 14.0302 185.109 14.0422C186.009 14.0182 186.789 14.2462 187.341 14.7142C187.893 15.1822 188.157 15.8662 188.169 16.5142C188.169 16.5502 188.169 16.5742 188.169 16.6102C188.169 17.2462 187.953 17.9062 187.461 18.4462C186.945 19.0102 186.117 19.3822 185.133 19.3582C182.925 19.3342 180.729 19.3102 178.533 19.2982C181.629 20.5462 184.725 21.7942 187.809 23.0422C186.177 23.0422 184.533 23.0422 182.889 23.0422C180.489 22.0462 178.089 21.0502 175.689 20.0542C175.689 21.0502 175.689 22.0462 175.689 23.0422C175.677 23.0422 175.665 23.0422 175.653 23.0422C175.065 23.0422 174.489 23.0422 173.913 23.0422C173.901 23.0422 173.889 23.0422 173.877 23.0422C173.877 20.0302 173.877 17.0182 173.877 14.0182C173.889 14.0182 173.889 14.0182 173.901 14.0182ZM185.121 15.8062L185.109 15.7942C181.953 15.7822 178.797 15.7822 175.641 15.7702C175.641 16.3582 175.641 16.9342 175.641 17.5102C178.821 17.5342 181.989 17.5702 185.169 17.5942C185.169 17.5942 185.169 17.5942 185.181 17.5942C185.805 17.5942 186.489 17.2702 186.357 16.4542C186.285 16.0462 185.817 15.8062 185.145 15.8062C185.133 15.8062 185.133 15.8062 185.121 15.8062ZM190.464 15.2302L190.476 15.2422C191.196 14.4862 192.264 13.9942 193.524 13.9942H193.536C196.728 14.0062 199.92 14.0182 203.112 14.0302C203.1 14.6182 203.1 15.2062 203.1 15.7942C199.908 15.7822 196.716 15.7702 193.524 15.7702C192.696 15.7702 192.156 16.0462 191.748 16.4662C191.34 16.8862 191.088 17.4982 191.028 18.1582C190.956 18.9262 191.148 19.7302 191.556 20.2942C191.964 20.8582 192.552 21.2182 193.524 21.2182C196.704 21.2062 199.896 21.1942 203.076 21.1822C203.076 21.7702 203.088 22.3582 203.1 22.9582C199.908 22.9582 196.716 22.9702 193.536 22.9822C193.524 22.9822 193.524 22.9822 193.524 22.9822C192.048 22.9822 190.848 22.2982 190.14 21.3262C189.528 20.4982 189.24 19.4902 189.24 18.4822C189.24 18.3142 189.252 18.1342 189.264 17.9662C189.36 16.9702 189.744 15.9862 190.464 15.2302ZM205.347 15.2422L205.359 15.2662C206.079 14.5102 207.147 14.0182 208.407 14.0182C208.407 14.0182 208.407 14.0182 208.419 14.0182C211.611 14.0302 214.803 14.0422 217.995 14.0422C217.983 14.6422 217.983 15.2302 217.983 15.8182C214.791 15.8062 211.599 15.7942 208.407 15.7822C207.579 15.7822 207.039 16.0582 206.631 16.4782C206.343 16.7902 206.127 17.1982 206.007 17.6542C210.015 17.6542 214.011 17.6542 218.019 17.6542C218.019 18.2422 218.019 18.8302 218.019 19.4302C214.023 19.4302 210.027 19.4302 206.031 19.4302C206.115 19.7542 206.259 20.0542 206.439 20.3062C206.847 20.8702 207.435 21.2302 208.407 21.2302C211.587 21.1942 214.767 21.1582 217.959 21.1222C217.959 21.7102 217.971 22.2982 217.971 22.8982C214.791 22.9222 211.599 22.9582 208.407 22.9942C206.931 22.9942 205.731 22.3102 205.023 21.3382C204.411 20.5102 204.123 19.5022 204.123 18.4942C204.123 18.3262 204.123 18.1462 204.147 17.9782C204.243 16.9822 204.627 15.9982 205.347 15.2422Z" fill="black"/>
<path fill-rule="evenodd" clip-rule="evenodd" d="M2.63459 26.7288L0.977876 27.5564C0.0344681 28.0293 -0.276166 29.0736 0.276073 29.8716C0.828311 30.6795 2.04784 30.9455 2.97974 30.4726L4.63646 29.645C5.57987 29.1721 5.8905 28.1278 5.33826 27.3298C4.78602 26.5219 3.5665 26.2559 2.63459 26.7288Z" fill="#FFE600"/>
<path fill-rule="evenodd" clip-rule="evenodd" d="M25.6906 22.995L23.0905 19.2019C21.2152 16.463 22.2967 12.9162 25.4951 11.3201L35.1592 6.47281C38.7948 4.65015 37.3337 0.47281 32.5131 0.0885738C28.1297 -0.266106 23.5852 0.512219 19.501 2.57133L6.46583 9.11321C5.52243 9.58611 5.21179 10.6304 5.76403 11.4285C6.31627 12.2364 7.5358 12.5024 8.4677 12.0295L11.5855 10.463C12.529 9.99005 13.737 10.2659 14.2892 11.0639C14.8415 11.8718 14.5193 12.9063 13.5874 13.3792L5.10825 17.6354C4.16484 18.1083 3.8542 19.1526 4.40644 19.9506C4.95868 20.7585 6.17821 21.0245 7.11011 20.5516L9.50315 19.3497C10.4466 18.8768 11.6546 19.1526 12.2068 19.9506C12.7591 20.7585 12.4369 21.793 11.505 22.2659C9.90582 23.0738 9.71024 23.1625 8.11105 23.9703C7.16764 24.4433 6.857 25.4876 7.40924 26.2856C7.96148 27.0935 9.18101 27.3595 10.1129 26.8866L14.8415 24.5122C15.7734 24.0393 16.9929 24.3152 17.5451 25.1132C18.0974 25.9211 17.7752 26.9556 16.8433 27.4285L5.60296 33.0738C4.67106 33.5467 4.34892 34.591 4.90116 35.3891C5.4534 36.1871 6.67292 36.463 7.60483 35.9901L24.287 27.6157C26.1739 26.6699 26.8066 24.6009 25.7022 22.9851L25.6906 22.995Z" fill="#FFE600"/>
<path fill-rule="evenodd" clip-rule="evenodd" d="M47.9297 7.4877C46.5261 5.87193 44.3977 5.75371 42.4649 6.72907L36.7239 9.61577C34.8371 10.5616 34.2043 12.6306 35.3088 14.2463L37.8974 18.0394C39.7727 20.7783 38.6912 24.3251 35.4929 25.9212C28.9925 29.1823 27.5774 29.8916 21.0771 33.1527C20.1452 33.6256 19.8231 34.67 20.3753 35.468C20.9276 36.2759 22.1471 36.5419 23.079 36.069L31.8113 31.6847C32.7547 31.2118 33.9627 31.4877 34.5149 32.2857C35.0672 33.0936 34.745 34.1281 33.8131 34.601C32.5936 35.2118 31.3741 35.8227 30.1545 36.4434C29.2226 36.9163 28.9005 37.9606 29.4527 38.7586C30.005 39.5567 31.2245 39.8325 32.1564 39.3596L41.4985 34.67C51.8529 29.468 55.3274 18.0591 49.2643 9.19213C48.8501 8.59114 48.4129 8.01972 47.9412 7.47784L47.9297 7.4877Z" fill="#FFE600"/>
<path fill-rule="evenodd" clip-rule="evenodd" d="M15.3822 36.0196L13.7254 36.8471C12.782 37.32 12.4714 38.3644 13.0236 39.1624C13.5759 39.9703 14.7954 40.2363 15.7273 39.7634L17.384 38.9358C18.3274 38.4629 18.6381 37.4186 18.0858 36.6205C17.5336 35.8225 16.3141 35.5466 15.3822 36.0196Z" fill="#FFE600"/>
<path d="M60.9757 14.7142L60.9517 14.6782C61.4677 14.2342 62.1877 14.0062 63.0397 14.0062C63.0877 14.0062 63.1357 14.0062 63.1717 14.0062C66.9037 14.0182 70.6357 14.0302 74.3677 14.0422C74.3677 14.6302 74.3677 15.2182 74.3557 15.8062C70.6237 15.7942 66.8917 15.7822 63.1477 15.7702H63.1357C62.5357 15.7462 62.2597 15.8782 62.1037 16.0102C61.9477 16.1422 61.8757 16.3102 61.8637 16.5502C61.8517 16.8262 61.8997 17.1622 62.0197 17.3422C62.1397 17.5222 62.2717 17.6782 62.9077 17.6782C65.7157 17.6782 68.5237 17.6662 71.3317 17.6542C71.3437 17.6542 71.3437 17.6542 71.3557 17.6542C72.3757 17.6542 73.2037 17.9782 73.7077 18.5302C74.2237 19.1062 74.3677 19.8142 74.3557 20.3902C74.3557 20.4022 74.3557 20.4022 74.3557 20.4022C74.3437 21.0262 74.1157 21.6982 73.5877 22.2022C73.0597 22.7062 72.2677 22.9702 71.3317 22.9462C67.5877 22.9462 63.8557 22.9462 60.1117 22.9582C60.1117 22.3582 60.1117 21.7702 60.1117 21.1822C63.8677 21.1822 67.6237 21.1822 71.3677 21.1702C71.3797 21.1702 71.3797 21.1702 71.3797 21.1702C71.9677 21.1822 72.2317 21.0382 72.3757 20.9062C72.5197 20.7742 72.5917 20.5942 72.5917 20.3542C72.5917 20.1262 72.5317 19.8862 72.3997 19.7422C72.2677 19.5982 72.0277 19.4302 71.3437 19.4422C68.5477 19.4542 65.7397 19.4662 62.9317 19.4662C61.8637 19.4662 60.9997 18.9982 60.5677 18.3502C60.2077 17.8222 60.1117 17.2582 60.1117 16.7662C60.1117 16.6582 60.1117 16.5502 60.1237 16.4542C60.1717 15.8422 60.4237 15.1822 60.9757 14.7142ZM78.403 13.9942L78.475 13.9822C78.523 13.9822 78.571 13.9822 78.619 13.9822C79.975 13.9942 81.331 13.9942 82.687 13.9942C84.031 13.9942 85.387 13.9942 86.743 13.9822C86.791 13.9822 86.839 13.9822 86.887 13.9822C87.787 13.9822 88.555 14.3422 89.047 14.8582C89.563 15.4102 89.791 16.0942 89.803 16.7302C89.803 17.1742 89.803 17.7262 89.803 18.2542C89.803 19.3102 89.803 20.2942 89.803 20.2942C89.815 20.9542 89.575 21.6502 89.035 22.1662C88.495 22.6822 87.691 22.9582 86.743 22.9342C86.755 22.9342 86.767 22.9342 86.767 22.9342C85.399 22.9342 84.019 22.9342 82.639 22.9342C81.271 22.9342 79.891 22.9342 78.523 22.9342C78.523 22.9342 78.535 22.9342 78.547 22.9342C78.499 22.9342 78.463 22.9342 78.415 22.9342C77.527 22.9342 76.771 22.6582 76.255 22.1662C75.715 21.6502 75.475 20.9542 75.487 20.2942C75.487 20.2942 75.487 19.3102 75.487 18.2542C75.487 17.7262 75.487 17.1862 75.487 16.7422C75.499 16.1062 75.727 15.4222 76.243 14.8702C76.735 14.3542 77.503 13.9942 78.403 13.9942ZM78.583 15.7582H78.559C78.499 15.7582 78.427 15.7582 78.367 15.7582H78.379C77.971 15.7702 77.767 15.9022 77.599 16.0702C77.407 16.2742 77.311 16.5742 77.311 16.7902V16.8022C77.311 18.0022 77.311 19.2142 77.311 20.4142C77.311 20.5942 77.371 20.7622 77.515 20.8942C77.671 21.0382 77.947 21.1822 78.523 21.1702C78.523 21.1702 78.523 21.1702 78.535 21.1702C79.663 21.1702 80.791 21.1702 81.931 21.1702C82.183 21.1702 82.423 21.1702 82.675 21.1702C82.915 21.1702 83.167 21.1702 83.407 21.1702C84.547 21.1702 85.675 21.1702 86.815 21.1702C86.815 21.1702 86.815 21.1702 86.827 21.1702C87.403 21.1822 87.679 21.0382 87.835 20.8942C87.979 20.7622 88.039 20.5942 88.039 20.4142C88.039 19.2142 88.039 18.0022 88.039 16.8022V16.7902C88.039 16.5742 87.943 16.2742 87.751 16.0702C87.583 15.9022 87.379 15.7702 86.971 15.7582C86.911 15.7582 86.851 15.7582 86.779 15.7582C86.767 15.7582 86.767 15.7582 86.755 15.7582C85.651 15.7582 84.535 15.7582 83.419 15.7702C83.167 15.7702 82.927 15.7702 82.675 15.7702C82.435 15.7702 82.183 15.7702 81.931 15.7702C80.827 15.7582 79.711 15.7582 78.595 15.7582H78.583ZM92.0503 15.2302L92.0623 15.2422C92.7823 14.4862 93.8503 13.9942 95.1103 13.9942H95.1223C98.3143 14.0062 101.506 14.0182 104.698 14.0302C104.686 14.6182 104.686 15.2062 104.686 15.7942C101.494 15.7822 98.3023 15.7702 95.1103 15.7702C94.2823 15.7702 93.7423 16.0462 93.3343 16.4662C92.9263 16.8862 92.6743 17.4982 92.6143 18.1582C92.5423 18.9262 92.7343 19.7302 93.1423 20.2942C93.5503 20.8582 94.1383 21.2182 95.1103 21.2182C98.2903 21.2062 101.482 21.1942 104.662 21.1822C104.662 21.7702 104.674 22.3582 104.686 22.9582C101.494 22.9582 98.3023 22.9702 95.1223 22.9822C95.1103 22.9822 95.1103 22.9822 95.1103 22.9822C93.6343 22.9822 92.4343 22.2982 91.7263 21.3262C91.1143 20.4982 90.8263 19.4902 90.8263 18.4822C90.8263 18.3142 90.8383 18.1342 90.8503 17.9662C90.9463 16.9702 91.3303 15.9862 92.0503 15.2302ZM105.637 15.7942C105.637 15.2062 105.637 14.6182 105.637 14.0302C106.153 14.0302 106.681 14.0302 107.197 14.0302C107.785 14.0302 108.385 14.0302 108.985 14.0302C109.501 14.0302 110.017 14.0302 110.533 14.0302C110.533 14.6182 110.533 15.2062 110.533 15.7942C110.017 15.7942 109.501 15.7942 108.985 15.7942C108.985 17.6182 108.985 19.4422 108.985 21.2662C109.501 21.2662 110.017 21.2662 110.533 21.2662C110.533 21.8542 110.533 22.4422 110.533 23.0302C110.017 23.0302 109.501 23.0302 108.985 23.0302C108.385 23.0302 107.785 23.0302 107.197 23.0302C106.681 23.0302 106.153 23.0302 105.637 23.0302C105.637 22.4422 105.637 21.8542 105.637 21.2662C106.153 21.2662 106.681 21.2662 107.197 21.2662C107.197 19.4422 107.197 17.6182 107.197 15.7942C106.681 15.7942 106.153 15.7942 105.637 15.7942ZM114.415 13.9942L114.487 13.9822C114.535 13.9822 114.583 13.9822 114.631 13.9822C115.987 13.9942 117.343 13.9942 118.699 13.9942C120.043 13.9942 121.399 13.9942 122.755 13.9822C122.803 13.9822 122.851 13.9822 122.899 13.9822C123.799 13.9822 124.567 14.3422 125.059 14.8582C125.575 15.4102 125.803 16.0942 125.815 16.7302C125.815 17.1742 125.815 17.7262 125.815 18.2542C125.815 19.3102 125.815 20.2942 125.815 20.2942C125.827 20.9542 125.587 21.6502 125.047 22.1662C124.507 22.6822 123.703 22.9582 122.755 22.9342C122.767 22.9342 122.779 22.9342 122.779 22.9342C121.411 22.9342 120.031 22.9342 118.651 22.9342C117.283 22.9342 115.903 22.9342 114.535 22.9342C114.535 22.9342 114.547 22.9342 114.559 22.9342C114.511 22.9342 114.475 22.9342 114.427 22.9342C113.539 22.9342 112.783 22.6582 112.267 22.1662C111.727 21.6502 111.487 20.9542 111.499 20.2942C111.499 20.2942 111.499 19.3102 111.499 18.2542C111.499 17.7262 111.499 17.1862 111.499 16.7422C111.511 16.1062 111.739 15.4222 112.255 14.8702C112.747 14.3542 113.515 13.9942 114.415 13.9942ZM114.595 15.7582H114.571C114.511 15.7582 114.439 15.7582 114.379 15.7582H114.391C113.983 15.7702 113.779 15.9022 113.611 16.0702C113.419 16.2742 113.323 16.5742 113.323 16.7902V16.8022C113.323 18.0022 113.323 19.2142 113.323 20.4142C113.323 20.5942 113.383 20.7622 113.527 20.8942C113.683 21.0382 113.959 21.1822 114.535 21.1702C114.535 21.1702 114.535 21.1702 114.547 21.1702C115.675 21.1702 116.803 21.1702 117.943 21.1702C118.195 21.1702 118.435 21.1702 118.687 21.1702C118.927 21.1702 119.179 21.1702 119.419 21.1702C120.559 21.1702 121.687 21.1702 122.827 21.1702C122.827 21.1702 122.827 21.1702 122.839 21.1702C123.415 21.1822 123.691 21.0382 123.847 20.8942C123.991 20.7622 124.051 20.5942 124.051 20.4142C124.051 19.2142 124.051 18.0022 124.051 16.8022V16.7902C124.051 16.5742 123.955 16.2742 123.763 16.0702C123.595 15.9022 123.391 15.7702 122.983 15.7582C122.923 15.7582 122.863 15.7582 122.791 15.7582C122.779 15.7582 122.779 15.7582 122.767 15.7582C121.663 15.7582 120.547 15.7582 119.431 15.7702C119.179 15.7702 118.939 15.7702 118.687 15.7702C118.447 15.7702 118.195 15.7702 117.943 15.7702C116.839 15.7582 115.723 15.7582 114.607 15.7582H114.595ZM126.826 23.0182C126.826 20.0542 126.826 17.0782 126.826 14.1022C127.666 14.1022 128.518 14.1022 129.37 14.1022C131.026 15.2182 132.694 16.3222 134.35 17.4262C136.006 16.3222 137.674 15.2182 139.33 14.1022C140.182 14.1022 141.022 14.1022 141.874 14.1022C141.874 17.0782 141.874 20.0542 141.874 23.0182C141.286 23.0182 140.698 23.0182 140.11 23.0182C140.11 20.6422 140.11 18.2542 140.11 15.8782C140.026 15.8782 139.942 15.8782 139.87 15.8782C138.022 17.1022 136.186 18.3262 134.35 19.5622C132.514 18.3262 130.666 17.1022 128.83 15.8782C128.758 15.8782 128.674 15.8782 128.59 15.8782C128.59 18.2542 128.59 20.6422 128.59 23.0182C128.002 23.0182 127.414 23.0182 126.826 23.0182ZM142.904 23.0182C142.904 20.0542 142.904 17.0782 142.904 14.1022C143.744 14.1022 144.596 14.1022 145.448 14.1022C147.104 15.2182 148.772 16.3222 150.428 17.4262C152.084 16.3222 153.752 15.2182 155.408 14.1022C156.26 14.1022 157.1 14.1022 157.952 14.1022C157.952 17.0782 157.952 20.0542 157.952 23.0182C157.364 23.0182 156.776 23.0182 156.188 23.0182C156.188 20.6422 156.188 18.2542 156.188 15.8782C156.104 15.8782 156.02 15.8782 155.948 15.8782C154.1 17.1022 152.264 18.3262 150.428 19.5622C148.592 18.3262 146.744 17.1022 144.908 15.8782C144.836 15.8782 144.752 15.8782 144.668 15.8782C144.668 18.2542 144.668 20.6422 144.668 23.0182C144.08 23.0182 143.492 23.0182 142.904 23.0182ZM160.218 15.2422L160.23 15.2662C160.95 14.5102 162.018 14.0182 163.278 14.0182C163.278 14.0182 163.278 14.0182 163.29 14.0182C166.482 14.0302 169.674 14.0422 172.866 14.0422C172.854 14.6422 172.854 15.2302 172.854 15.8182C169.662 15.8062 166.47 15.7942 163.278 15.7822C162.45 15.7822 161.91 16.0582 161.502 16.4782C161.214 16.7902 160.998 17.1982 160.878 17.6542C164.886 17.6542 168.882 17.6542 172.89 17.6542C172.89 18.2422 172.89 18.8302 172.89 19.4302C168.894 19.4302 164.898 19.4302 160.902 19.4302C160.986 19.7542 161.13 20.0542 161.31 20.3062C161.718 20.8702 162.306 21.2302 163.278 21.2302C166.458 21.1942 169.638 21.1582 172.83 21.1222C172.83 21.7102 172.842 22.2982 172.842 22.8982C169.662 22.9222 166.47 22.9582 163.278 22.9942C161.802 22.9942 160.602 22.3102 159.894 21.3382C159.282 20.5102 158.994 19.5022 158.994 18.4942C158.994 18.3262 158.994 18.1462 159.018 17.9782C159.114 16.9822 159.498 15.9982 160.218 15.2422ZM173.901 14.0182L173.913 14.0542C173.913 14.0422 173.913 14.0302 173.913 14.0182C177.645 14.0302 181.377 14.0302 185.109 14.0422C186.009 14.0182 186.789 14.2462 187.341 14.7142C187.893 15.1822 188.157 15.8662 188.169 16.5142C188.169 16.5502 188.169 16.5742 188.169 16.6102C188.169 17.2462 187.953 17.9062 187.461 18.4462C186.945 19.0102 186.117 19.3822 185.133 19.3582C182.925 19.3342 180.729 19.3102 178.533 19.2982C181.629 20.5462 184.725 21.7942 187.809 23.0422C186.177 23.0422 184.533 23.0422 182.889 23.0422C180.489 22.0462 178.089 21.0502 175.689 20.0542C175.689 21.0502 175.689 22.0462 175.689 23.0422C175.677 23.0422 175.665 23.0422 175.653 23.0422C175.065 23.0422 174.489 23.0422 173.913 23.0422C173.901 23.0422 173.889 23.0422 173.877 23.0422C173.877 20.0302 173.877 17.0182 173.877 14.0182C173.889 14.0182 173.889 14.0182 173.901 14.0182ZM185.121 15.8062L185.109 15.7942C181.953 15.7822 178.797 15.7822 175.641 15.7702C175.641 16.3582 175.641 16.9342 175.641 17.5102C178.821 17.5342 181.989 17.5702 185.169 17.5942C185.169 17.5942 185.169 17.5942 185.181 17.5942C185.805 17.5942 186.489 17.2702 186.357 16.4542C186.285 16.0462 185.817 15.8062 185.145 15.8062C185.133 15.8062 185.133 15.8062 185.121 15.8062ZM190.464 15.2302L190.476 15.2422C191.196 14.4862 192.264 13.9942 193.524 13.9942H193.536C196.728 14.0062 199.92 14.0182 203.112 14.0302C203.1 14.6182 203.1 15.2062 203.1 15.7942C199.908 15.7822 196.716 15.7702 193.524 15.7702C192.696 15.7702 192.156 16.0462 191.748 16.4662C191.34 16.8862 191.088 17.4982 191.028 18.1582C190.956 18.9262 191.148 19.7302 191.556 20.2942C191.964 20.8582 192.552 21.2182 193.524 21.2182C196.704 21.2062 199.896 21.1942 203.076 21.1822C203.076 21.7702 203.088 22.3582 203.1 22.9582C199.908 22.9582 196.716 22.9702 193.536 22.9822C193.524 22.9822 193.524 22.9822 193.524 22.9822C192.048 22.9822 190.848 22.2982 190.14 21.3262C189.528 20.4982 189.24 19.4902 189.24 18.4822C189.24 18.3142 189.252 18.1342 189.264 17.9662C189.36 16.9702 189.744 15.9862 190.464 15.2302ZM205.347 15.2422L205.359 15.2662C206.079 14.5102 207.147 14.0182 208.407 14.0182C208.407 14.0182 208.407 14.0182 208.419 14.0182C211.611 14.0302 214.803 14.0422 217.995 14.0422C217.983 14.6422 217.983 15.2302 217.983 15.8182C214.791 15.8062 211.599 15.7942 208.407 15.7822C207.579 15.7822 207.039 16.0582 206.631 16.4782C206.343 16.7902 206.127 17.1982 206.007 17.6542C210.015 17.6542 214.011 17.6542 218.019 17.6542C218.019 18.2422 218.019 18.8302 218.019 19.4302C214.023 19.4302 210.027 19.4302 206.031 19.4302C206.115 19.7542 206.259 20.0542 206.439 20.3062C206.847 20.8702 207.435 21.2302 208.407 21.2302C211.587 21.1942 214.767 21.1582 217.959 21.1222C217.959 21.7102 217.971 22.2982 217.971 22.8982C214.791 22.9222 211.599 22.9582 208.407 22.9942C206.931 22.9942 205.731 22.3102 205.023 21.3382C204.411 20.5102 204.123 19.5022 204.123 18.4942C204.123 18.3262 204.123 18.1462 204.147 17.9782C204.243 16.9822 204.627 15.9982 205.347 15.2422Z" fill="black"/>
</g>
<defs>
<clipPath id="clip0_234_44">
<rect width="222" height="40" fill="white"/>
</clipPath>
</defs>
</svg>