<svg width="300" height="40" viewBox="0 0 300 40" fill="none" xmlns="http://www.w3.org/2000/svg">
<g clip-path="url(#clip0_228_1065)">
<path fill-rule="evenodd" clip-rule="evenodd" d="M2.81678 26.7254L1.04366 27.557C0.0397359 28.0277 -0.299721 29.0702 0.288911 29.8729C0.877543 30.6757 2.1812 30.9472 3.18512 30.4765L4.95824 29.6448C5.96217 29.1741 6.30162 28.1317 5.71299 27.3289C5.12436 26.5261 3.8207 26.2547 2.81678 26.7254Z" fill="#FFE600"/>
<path fill-rule="evenodd" clip-rule="evenodd" d="M27.514 22.9945L24.7369 19.2059C22.7327 16.4713 23.8919 12.9223 27.3081 11.3197L37.6579 6.46838C41.5508 4.64337 39.9872 0.467803 34.8195 0.0808552C30.1285 -0.27144 25.2605 0.50823 20.8873 2.55848L6.93351 9.10193C5.92958 9.57263 5.59013 10.6151 6.17876 11.4178C6.76739 12.2206 8.07105 12.4921 9.07497 12.0214L12.4154 10.4534C13.4193 9.98267 14.723 10.2541 15.3116 11.0569C15.9002 11.8597 15.5608 12.9021 14.5568 13.3728L5.47457 17.6292C4.47064 18.0999 4.13119 19.1424 4.71982 19.9451C5.30845 20.7479 6.61211 21.0193 7.61603 20.5487L10.18 19.3474C11.1839 18.8767 12.4876 19.1481 13.0762 19.9509C13.6649 20.7537 13.3254 21.7961 12.3215 22.2668C10.6097 23.0696 10.4039 23.1678 8.68857 23.9677C7.68465 24.4383 7.34519 25.4808 7.93382 26.2836C8.52245 27.0863 9.82611 27.3578 10.83 26.8871L15.8966 24.5134C16.9005 24.0427 18.2042 24.3142 18.7928 25.117C19.3814 25.9197 19.042 26.9622 18.0381 27.4329L6.00542 33.0725C5.0015 33.5432 4.66204 34.5856 5.25067 35.3884C5.8393 36.1912 7.14296 36.4626 8.14688 35.9919L26.0045 27.6206C28.0195 26.6763 28.6984 24.6001 27.514 22.9887V22.9945Z" fill="#FFE600"/>
<path fill-rule="evenodd" clip-rule="evenodd" d="M51.3265 7.48773C49.8206 5.87641 47.5491 5.75512 45.4727 6.72827L39.3191 9.61305C37.304 10.5573 36.6251 12.6336 37.8096 14.2449L40.5866 18.0335C42.5909 20.7681 41.4353 24.3142 38.0154 25.9197C31.053 29.1828 29.5435 29.8903 22.581 33.1562C21.5771 33.6269 21.2376 34.6694 21.8263 35.4721C22.4149 36.2749 23.7186 36.5463 24.7225 36.0757L34.072 31.6922C35.0759 31.2215 36.3796 31.4929 36.9682 32.2957C37.5568 33.0985 37.2174 34.1409 36.2134 34.6116C34.9062 35.2238 33.5989 35.836 32.2916 36.4482C31.2877 36.9189 30.9483 37.9613 31.5369 38.7641C32.1255 39.5668 33.4292 39.8383 34.4331 39.3676L44.4398 34.678C55.5336 29.4773 59.2531 18.071 52.7529 9.203C52.3123 8.60237 51.8393 8.03061 51.3301 7.48484L51.3265 7.48773Z" fill="#FFE600"/>
<path fill-rule="evenodd" clip-rule="evenodd" d="M16.4745 36.0179L14.7014 36.8496C13.6975 37.3202 13.358 38.3627 13.9466 39.1655C14.5353 39.9682 15.8389 40.2397 16.8428 39.769L18.616 38.9373C19.6199 38.4666 19.9593 37.4242 19.3707 36.6214C18.7821 35.8187 17.4784 35.5472 16.4745 36.0179Z" fill="#FFE600"/>
<path d="M64.468 19.988C64.468 18.992 64.468 17.984 64.468 16.988C65.056 16.988 65.644 16.988 66.244 16.988C66.244 17.984 66.244 18.968 66.244 19.964C68.704 18.968 71.176 17.984 73.636 16.988C75.016 16.988 76.396 16.988 77.776 16.988C74.248 18.488 70.72 19.988 67.204 21.488C70.72 22.988 74.248 24.5 77.776 26C76.396 26 75.016 26 73.636 26C71.176 25.004 68.704 24.008 66.244 23.012C66.244 24.008 66.244 25.004 66.256 26C65.656 26 65.068 26 64.468 26C64.468 23.984 64.468 21.992 64.468 19.988ZM79.8843 18.188L79.8963 18.212C80.6163 17.456 81.6842 16.964 82.9443 16.964C82.9443 16.964 82.9443 16.964 82.9563 16.964C86.1483 16.976 89.3403 16.988 92.5323 16.988C92.5203 17.588 92.5203 18.176 92.5203 18.764C89.3283 18.752 86.1363 18.74 82.9443 18.728C82.1163 18.728 81.5763 19.004 81.1683 19.424C80.8803 19.736 80.6643 20.144 80.5443 20.6C84.5523 20.6 88.5483 20.6 92.5563 20.6C92.5563 21.188 92.5563 21.776 92.5563 22.376C88.5603 22.376 84.5643 22.376 80.5683 22.376C80.6523 22.7 80.7963 23 80.9763 23.252C81.3843 23.816 81.9723 24.176 82.9443 24.176C86.1243 24.14 89.3043 24.104 92.4963 24.068C92.4963 24.656 92.5083 25.244 92.5083 25.844C89.3283 25.868 86.1363 25.904 82.9443 25.94C81.4683 25.94 80.2683 25.256 79.5603 24.284C78.9482 23.456 78.6603 22.448 78.6603 21.44C78.6603 21.272 78.6603 21.092 78.6843 20.924C78.7803 19.928 79.1643 18.944 79.8843 18.188ZM93.5071 19.988C93.5071 18.992 93.5071 17.984 93.5071 16.988C94.0951 16.988 94.6831 16.988 95.2831 16.988C95.2831 17.984 95.2831 18.968 95.2831 19.964C97.7431 18.968 100.215 17.984 102.675 16.988C104.055 16.988 105.435 16.988 106.815 16.988C103.287 18.488 99.7591 19.988 96.2431 21.488C99.7591 22.988 103.287 24.5 106.815 26C105.435 26 104.055 26 102.675 26C100.215 25.004 97.7431 24.008 95.2831 23.012C95.2831 24.008 95.2831 25.004 95.2951 26C94.6951 26 94.1071 26 93.5071 26C93.5071 23.984 93.5071 21.992 93.5071 19.988ZM110.639 16.94L110.711 16.928C110.759 16.928 110.807 16.928 110.855 16.928C112.211 16.94 113.567 16.94 114.923 16.94C116.267 16.94 117.623 16.94 118.979 16.928C119.027 16.928 119.075 16.928 119.123 16.928C120.023 16.928 120.791 17.288 121.283 17.804C121.799 18.356 122.027 19.04 122.039 19.676C122.039 20.12 122.039 20.672 122.039 21.2C122.039 22.256 122.039 23.24 122.039 23.24C122.051 23.9 121.811 24.596 121.271 25.112C120.731 25.628 119.927 25.904 118.979 25.88C118.991 25.88 119.003 25.88 119.003 25.88C117.635 25.88 116.255 25.88 114.875 25.88C113.507 25.88 112.127 25.88 110.759 25.88C110.759 25.88 110.771 25.88 110.783 25.88C110.735 25.88 110.699 25.88 110.651 25.88C109.763 25.88 109.007 25.604 108.491 25.112C107.951 24.596 107.711 23.9 107.723 23.24C107.723 23.24 107.723 22.256 107.723 21.2C107.723 20.672 107.723 20.132 107.723 19.688C107.735 19.052 107.963 18.368 108.479 17.816C108.971 17.3 109.739 16.94 110.639 16.94ZM110.819 18.704H110.795C110.735 18.704 110.663 18.704 110.603 18.704H110.615C110.207 18.716 110.003 18.848 109.835 19.016C109.643 19.22 109.547 19.52 109.547 19.736V19.748C109.547 20.948 109.547 22.16 109.547 23.36C109.547 23.54 109.607 23.708 109.751 23.84C109.907 23.984 110.183 24.128 110.759 24.116C110.759 24.116 110.759 24.116 110.771 24.116C111.899 24.116 113.027 24.116 114.167 24.116C114.419 24.116 114.659 24.116 114.911 24.116C115.151 24.116 115.403 24.116 115.643 24.116C116.783 24.116 117.911 24.116 119.051 24.116C119.051 24.116 119.051 24.116 119.063 24.116C119.639 24.128 119.915 23.984 120.071 23.84C120.215 23.708 120.275 23.54 120.275 23.36C120.275 22.16 120.275 20.948 120.275 19.748V19.736C120.275 19.52 120.179 19.22 119.987 19.016C119.819 18.848 119.615 18.716 119.207 18.704C119.147 18.704 119.087 18.704 119.015 18.704C119.003 18.704 119.003 18.704 118.991 18.704C117.887 18.704 116.771 18.704 115.655 18.716C115.403 18.716 115.163 18.716 114.911 18.716C114.671 18.716 114.419 18.716 114.167 18.716C113.063 18.704 111.947 18.704 110.831 18.704H110.819ZM137.134 17.66L137.11 17.624C137.626 17.18 138.346 16.952 139.198 16.952C139.246 16.952 139.294 16.952 139.33 16.952C143.062 16.964 146.794 16.976 150.526 16.988C150.526 17.576 150.526 18.164 150.514 18.752C146.782 18.74 143.05 18.728 139.306 18.716H139.294C138.694 18.692 138.418 18.824 138.262 18.956C138.106 19.088 138.034 19.256 138.022 19.496C138.01 19.772 138.058 20.108 138.178 20.288C138.298 20.468 138.43 20.624 139.066 20.624C141.874 20.624 144.682 20.612 147.49 20.6C147.502 20.6 147.502 20.6 147.514 20.6C148.534 20.6 149.362 20.924 149.866 21.476C150.382 22.052 150.526 22.76 150.514 23.336C150.514 23.348 150.514 23.348 150.514 23.348C150.502 23.972 150.274 24.644 149.746 25.148C149.218 25.652 148.426 25.916 147.49 25.892C143.746 25.892 140.014 25.892 136.27 25.904C136.27 25.304 136.27 24.716 136.27 24.128C140.026 24.128 143.782 24.128 147.526 24.116C147.538 24.116 147.538 24.116 147.538 24.116C148.126 24.128 148.39 23.984 148.534 23.852C148.678 23.72 148.75 23.54 148.75 23.3C148.75 23.072 148.69 22.832 148.558 22.688C148.426 22.544 148.186 22.376 147.502 22.388C144.706 22.4 141.898 22.412 139.09 22.412C138.022 22.412 137.158 21.944 136.726 21.296C136.366 20.768 136.27 20.204 136.27 19.712C136.27 19.604 136.27 19.496 136.282 19.4C136.33 18.788 136.582 18.128 137.134 17.66ZM151.609 18.776C151.609 18.188 151.609 17.588 151.609 17C156.241 17 160.873 17.012 165.517 17.012C165.517 17.6 165.517 18.188 165.517 18.776C163.489 18.776 161.461 18.776 159.445 18.776C159.445 21.176 159.433 23.576 159.433 25.988C158.845 25.988 158.257 25.988 157.669 25.988C157.669 23.576 157.681 21.176 157.681 18.776C155.653 18.776 153.625 18.776 151.609 18.776ZM166.372 25.988C168.508 23.012 170.644 20.036 172.768 17.072C173.536 17.072 174.304 17.072 175.072 17.072C177.28 20.048 179.488 23.012 181.696 25.988C180.964 25.988 180.232 25.988 179.5 25.988C177.724 23.6 175.948 21.224 174.184 18.836C174.016 18.836 173.848 18.836 173.68 18.836C171.964 21.224 170.26 23.6 168.556 25.988C167.824 25.988 167.104 25.988 166.372 25.988ZM182.57 18.776C182.57 18.188 182.57 17.588 182.57 17C187.202 17 191.834 17.012 196.478 17.012C196.478 17.6 196.478 18.188 196.478 18.776C194.45 18.776 192.422 18.776 190.406 18.776C190.406 21.176 190.394 23.576 190.394 25.988C189.806 25.988 189.218 25.988 188.63 25.988C188.63 23.576 188.642 21.176 188.642 18.776C186.614 18.776 184.586 18.776 182.57 18.776ZM197.393 18.74C197.393 18.152 197.393 17.564 197.393 16.976C197.909 16.976 198.437 16.976 198.953 16.976C199.541 16.976 200.141 16.976 200.741 16.976C201.257 16.976 201.773 16.976 202.289 16.976C202.289 17.564 202.289 18.152 202.289 18.74C201.773 18.74 201.257 18.74 200.741 18.74C200.741 20.564 200.741 22.388 200.741 24.212C201.257 24.212 201.773 24.212 202.289 24.212C202.289 24.8 202.289 25.388 202.289 25.976C201.773 25.976 201.257 25.976 200.741 25.976C200.141 25.976 199.541 25.976 198.953 25.976C198.437 25.976 197.909 25.976 197.393 25.976C197.393 25.388 197.393 24.8 197.393 24.212C197.909 24.212 198.437 24.212 198.953 24.212C198.953 22.388 198.953 20.564 198.953 18.74C198.437 18.74 197.909 18.74 197.393 18.74ZM206.171 16.94L206.243 16.928C206.291 16.928 206.339 16.928 206.387 16.928C207.743 16.94 209.099 16.94 210.455 16.94C211.799 16.94 213.155 16.94 214.511 16.928C214.559 16.928 214.607 16.928 214.655 16.928C215.555 16.928 216.323 17.288 216.815 17.804C217.331 18.356 217.559 19.04 217.571 19.676C217.571 20.12 217.571 20.672 217.571 21.2C217.571 22.256 217.571 23.24 217.571 23.24C217.583 23.9 217.343 24.596 216.803 25.112C216.263 25.628 215.459 25.904 214.511 25.88C214.523 25.88 214.535 25.88 214.535 25.88C213.167 25.88 211.787 25.88 210.407 25.88C209.039 25.88 207.659 25.88 206.291 25.88C206.291 25.88 206.303 25.88 206.315 25.88C206.267 25.88 206.231 25.88 206.183 25.88C205.295 25.88 204.539 25.604 204.023 25.112C203.483 24.596 203.243 23.9 203.255 23.24C203.255 23.24 203.255 22.256 203.255 21.2C203.255 20.672 203.255 20.132 203.255 19.688C203.267 19.052 203.495 18.368 204.011 17.816C204.503 17.3 205.271 16.94 206.171 16.94ZM206.351 18.704H206.327C206.267 18.704 206.195 18.704 206.135 18.704H206.147C205.739 18.716 205.535 18.848 205.367 19.016C205.175 19.22 205.079 19.52 205.079 19.736V19.748C205.079 20.948 205.079 22.16 205.079 23.36C205.079 23.54 205.139 23.708 205.283 23.84C205.439 23.984 205.715 24.128 206.291 24.116C206.291 24.116 206.291 24.116 206.303 24.116C207.431 24.116 208.559 24.116 209.699 24.116C209.951 24.116 210.191 24.116 210.443 24.116C210.683 24.116 210.935 24.116 211.175 24.116C212.315 24.116 213.443 24.116 214.583 24.116C214.583 24.116 214.583 24.116 214.595 24.116C215.171 24.128 215.447 23.984 215.603 23.84C215.747 23.708 215.807 23.54 215.807 23.36C215.807 22.16 215.807 20.948 215.807 19.748V19.736C215.807 19.52 215.711 19.22 215.519 19.016C215.351 18.848 215.147 18.716 214.739 18.704C214.679 18.704 214.619 18.704 214.547 18.704C214.535 18.704 214.535 18.704 214.523 18.704C213.419 18.704 212.303 18.704 211.187 18.716C210.935 18.716 210.695 18.716 210.443 18.716C210.203 18.716 209.951 18.716 209.699 18.716C208.595 18.704 207.479 18.704 206.363 18.704H206.351ZM218.546 26C218.558 23.012 218.558 20.036 218.558 17.06C219.41 17.06 220.262 17.06 221.126 17.072C224.234 19.46 227.342 21.86 230.45 24.248C230.534 24.248 230.606 24.248 230.678 24.248C230.666 21.86 230.642 19.472 230.63 17.084C231.218 17.072 231.806 17.072 232.394 17.072C232.418 20.048 232.442 23.036 232.466 26.024C231.614 26.024 230.762 26.024 229.91 26.024C226.79 23.624 223.682 21.236 220.574 18.836C220.49 18.836 220.406 18.836 220.322 18.836C220.322 21.224 220.322 23.612 220.322 26C219.734 26 219.146 26 218.546 26ZM233.345 25.988C235.481 23.012 237.617 20.036 239.741 17.072C240.509 17.072 241.277 17.072 242.045 17.072C244.253 20.048 246.461 23.012 248.669 25.988C247.937 25.988 247.205 25.988 246.473 25.988C244.697 23.6 242.921 21.224 241.157 18.836C240.989 18.836 240.821 18.836 240.653 18.836C238.937 21.224 237.233 23.6 235.529 25.988C234.797 25.988 234.077 25.988 233.345 25.988ZM249.579 16.964L249.591 17C249.591 16.988 249.591 16.976 249.591 16.964C253.323 16.976 257.055 16.976 260.787 16.988C261.687 16.964 262.467 17.192 263.019 17.66C263.571 18.128 263.835 18.812 263.847 19.46C263.847 19.496 263.847 19.52 263.847 19.556C263.847 20.192 263.631 20.852 263.139 21.392C262.623 21.956 261.795 22.328 260.811 22.304C258.603 22.28 256.407 22.256 254.211 22.244C257.307 23.492 260.403 24.74 263.487 25.988C261.855 25.988 260.211 25.988 258.567 25.988C256.167 24.992 253.767 23.996 251.367 23C251.367 23.996 251.367 24.992 251.367 25.988C251.355 25.988 251.343 25.988 251.331 25.988C250.743 25.988 250.167 25.988 249.591 25.988C249.579 25.988 249.567 25.988 249.555 25.988C249.555 22.976 249.555 19.964 249.555 16.964C249.567 16.964 249.567 16.964 249.579 16.964ZM260.799 18.752L260.787 18.74C257.631 18.728 254.475 18.728 251.319 18.716C251.319 19.304 251.319 19.88 251.319 20.456C254.499 20.48 257.667 20.516 260.847 20.54C260.847 20.54 260.847 20.54 260.859 20.54C261.483 20.54 262.167 20.216 262.035 19.4C261.963 18.992 261.495 18.752 260.823 18.752C260.811 18.752 260.811 18.752 260.799 18.752ZM270.846 22.376L270.834 22.352C268.746 20.66 266.658 18.62 264.57 17.048C265.53 17.048 266.502 17.048 267.462 17.048C268.89 18.32 270.306 19.604 271.734 20.876C273.15 19.604 274.578 18.32 275.994 17.048C276.966 17.048 277.926 17.048 278.898 17.048C277.074 18.62 275.262 20.192 273.45 21.764C273.174 21.98 272.898 22.184 272.61 22.4C272.61 23.588 272.61 24.776 272.61 25.976C272.022 25.976 271.434 25.976 270.846 25.976C270.846 24.776 270.846 23.576 270.846 22.376Z" fill="black"/>
</g>
<defs>
<clipPath id="clip0_228_1065">
<rect width="300" height="40" fill="white"/>
</clipPath>
</defs>
</svg>
