<svg width="301" height="49" viewBox="0 0 301 49" fill="none" xmlns="http://www.w3.org/2000/svg">
<g filter="url(#filter0_dd_228_720)">
<rect x="10" y="5" width="46.6143" height="30.0304" rx="5.37857" fill="white"/>
<rect x="9.88795" y="4.88795" width="46.8384" height="30.2545" rx="5.49062" stroke="#D6DCE5" stroke-width="0.224107"/>
<path d="M33.0222 15.1212L30.848 25.2848H28.2189L30.3935 15.1212H33.0222ZM44.0839 21.6839L45.4681 17.8671L46.2646 21.6839H44.0839ZM47.0173 25.2848H49.4492L47.3271 15.1212H45.0824C44.578 15.1212 44.1524 15.4146 43.963 15.8669L40.0185 25.2848H42.7795L43.3276 23.7671H46.7008L47.0173 25.2848ZM40.1555 21.9663C40.1668 19.2838 36.4459 19.1362 36.4716 17.9379C36.4794 17.5728 36.8271 17.1855 37.5866 17.0861C37.9639 17.0369 39.0013 16.9992 40.1793 17.5413L40.6406 15.386C40.0079 15.1563 39.1937 14.9353 38.1811 14.9353C35.5825 14.9353 33.7534 16.3169 33.738 18.2953C33.7216 19.7583 35.0437 20.5747 36.0399 21.0611C37.0642 21.5594 37.4084 21.8785 37.4039 22.324C37.3971 23.0063 36.5868 23.3068 35.8308 23.3187C34.5087 23.3396 33.7415 22.9619 33.13 22.6769L32.6536 24.9039C33.2677 25.186 34.4016 25.4312 35.578 25.4437C38.3396 25.4437 40.1465 24.0791 40.1555 21.9663ZM29.2653 15.1212L25.0056 25.2848H22.226L20.1299 17.1736C20.0025 16.674 19.8918 16.4913 19.5049 16.2806C18.8734 15.938 17.8295 15.616 16.9111 15.4165L16.9739 15.1212H21.4475C22.0175 15.1212 22.5306 15.5008 22.6599 16.1574L23.7671 22.039L26.503 15.1212H29.2653Z" fill="#1434CB"/>
</g>
<g filter="url(#filter1_dd_228_720)">
<rect x="68.6143" y="5" width="46.6143" height="30.0304" rx="5.37857" fill="white"/>
<rect x="68.5022" y="4.88795" width="46.8384" height="30.2545" rx="5.49062" stroke="#D6DCE5" stroke-width="0.224107"/>
<path d="M95.2698 13.8484H88.4065V26.1819H95.2698V13.8484Z" fill="#FF5F00"/>
<path d="M88.8423 20.0151C88.8412 18.8273 89.1104 17.6548 89.6294 16.5864C90.1485 15.518 90.9038 14.5817 91.8382 13.8484C90.6811 12.9389 89.2914 12.3732 87.828 12.2162C86.3647 12.0591 84.8866 12.3169 83.5628 12.9602C82.2391 13.6034 81.123 14.6061 80.3421 15.8537C79.5613 17.1013 79.1472 18.5434 79.1472 20.0151C79.1472 21.4869 79.5613 22.929 80.3421 24.1766C81.123 25.4241 82.2391 26.4269 83.5628 27.0701C84.8866 27.7133 86.3647 27.9712 87.828 27.8141C89.2914 27.657 90.6811 27.0914 91.8382 26.1819C90.9038 25.4485 90.1485 24.5122 89.6295 23.4438C89.1104 22.3754 88.8413 21.2029 88.8423 20.0151Z" fill="#EB001B"/>
<path d="M104.529 20.0151C104.529 21.4869 104.115 22.929 103.334 24.1765C102.553 25.4241 101.437 26.4268 100.113 27.0701C98.7896 27.7133 97.3116 27.9712 95.8483 27.8141C94.3849 27.657 92.9953 27.0914 91.8382 26.1819C92.7717 25.4478 93.5265 24.5113 94.0454 23.4431C94.5644 22.3749 94.834 21.2028 94.834 20.0151C94.834 18.8275 94.5644 17.6554 94.0454 16.5872C93.5265 15.5189 92.7717 14.5825 91.8382 13.8484C92.9953 12.9389 94.3849 12.3732 95.8483 12.2162C97.3116 12.0591 98.7896 12.3169 100.113 12.9602C101.437 13.6034 102.553 14.6062 103.334 15.8537C104.115 17.1013 104.529 18.5434 104.529 20.0151Z" fill="#F79E1B"/>
<path d="M103.78 24.8756V24.6231H103.882V24.5716H103.623V24.6231H103.725V24.8756H103.78ZM104.284 24.8756V24.5711H104.204L104.113 24.7805L104.021 24.5711H103.942V24.8756H103.998V24.6459L104.084 24.8439H104.142L104.228 24.6454V24.8756H104.284Z" fill="#F79E1B"/>
</g>
<g filter="url(#filter2_dd_228_720)">
<rect x="127.229" y="5" width="46.6143" height="30.0304" rx="5.37857" fill="white"/>
<rect x="127.116" y="4.88795" width="46.8384" height="30.2545" rx="5.49062" stroke="#D6DCE5" stroke-width="0.224107"/>
<path fill-rule="evenodd" clip-rule="evenodd" d="M137.426 15.646H134.738C134.554 15.646 134.398 15.7796 134.369 15.9611L133.282 22.8518C133.261 22.9879 133.366 23.1104 133.504 23.1104H134.787C134.971 23.1104 135.127 22.9768 135.156 22.7949L135.449 20.9364C135.477 20.7544 135.634 20.6209 135.818 20.6209H136.668C138.439 20.6209 139.46 19.7643 139.727 18.0669C139.848 17.3243 139.732 16.7408 139.384 16.332C139.003 15.8835 138.325 15.646 137.426 15.646ZM137.736 18.1627C137.589 19.127 136.852 19.127 136.139 19.127H135.734L136.018 17.3261C136.035 17.2174 136.13 17.1372 136.24 17.1372H136.425C136.911 17.1372 137.369 17.1372 137.605 17.4138C137.746 17.5789 137.789 17.824 137.736 18.1627ZM145.459 18.1318H144.172C144.063 18.1318 143.968 18.212 143.951 18.3209L143.894 18.6808L143.804 18.5504C143.525 18.146 142.904 18.0109 142.284 18.0109C140.862 18.0109 139.647 19.0879 139.411 20.5988C139.288 21.3523 139.462 22.0729 139.89 22.5755C140.282 23.0375 140.843 23.2301 141.511 23.2301C142.657 23.2301 143.292 22.4933 143.292 22.4933L143.235 22.8509C143.213 22.9877 143.319 23.1102 143.456 23.1102H144.615C144.799 23.1102 144.955 22.9766 144.984 22.7948L145.68 18.3904C145.702 18.2549 145.597 18.1318 145.459 18.1318ZM143.665 20.6364C143.541 21.3715 142.957 21.865 142.213 21.865C141.84 21.865 141.541 21.7452 141.349 21.5181C141.159 21.2926 141.086 20.9715 141.147 20.614C141.263 19.8851 141.856 19.3756 142.589 19.3756C142.955 19.3756 143.252 19.4968 143.447 19.726C143.644 19.9574 143.721 20.2804 143.665 20.6364ZM151.02 18.1317H152.313C152.495 18.1317 152.6 18.3348 152.497 18.4833L148.196 24.6914C148.126 24.792 148.011 24.8518 147.889 24.8518H146.597C146.415 24.8518 146.309 24.6471 146.414 24.4982L147.754 22.6078L146.329 18.4279C146.28 18.2826 146.387 18.1317 146.542 18.1317H147.813C147.978 18.1317 148.123 18.24 148.171 18.398L148.927 20.9226L150.711 18.2955C150.781 18.1929 150.897 18.1317 151.02 18.1317Z" fill="#253B80"/>
<path fill-rule="evenodd" clip-rule="evenodd" d="M165.043 22.8512L166.146 15.8345C166.162 15.7256 166.257 15.6454 166.367 15.645H167.608C167.745 15.645 167.851 15.7679 167.829 15.9039L166.741 22.7943C166.713 22.9762 166.557 23.1098 166.372 23.1098H165.263C165.126 23.1098 165.021 22.9872 165.043 22.8512ZM156.596 15.6454H153.908C153.724 15.6454 153.568 15.779 153.539 15.9605L152.452 22.8512C152.431 22.9872 152.536 23.1098 152.673 23.1098H154.052C154.18 23.1098 154.29 23.0163 154.31 22.8891L154.619 20.9358C154.647 20.7538 154.804 20.6203 154.987 20.6203H155.838C157.608 20.6203 158.63 19.7637 158.897 18.0663C159.017 17.3237 158.902 16.7402 158.554 16.3314C158.172 15.8829 157.495 15.6454 156.596 15.6454ZM156.906 18.1621C156.759 19.1264 156.022 19.1264 155.309 19.1264H154.904L155.189 17.3255C155.206 17.2168 155.3 17.1366 155.41 17.1366H155.596C156.081 17.1366 156.539 17.1366 156.776 17.4132C156.917 17.5783 156.96 17.8234 156.906 18.1621ZM164.629 18.1312H163.342C163.232 18.1312 163.138 18.2114 163.122 18.3203L163.065 18.6802L162.974 18.5498C162.696 18.1454 162.075 18.0103 161.455 18.0103C160.032 18.0103 158.818 19.0873 158.582 20.5981C158.459 21.3517 158.633 22.0723 159.061 22.5748C159.454 23.0369 160.014 23.2294 160.682 23.2294C161.827 23.2294 162.463 22.4927 162.463 22.4927L162.406 22.8503C162.384 22.9871 162.489 23.1096 162.627 23.1096H163.786C163.97 23.1096 164.126 22.976 164.155 22.7941L164.851 18.3898C164.872 18.2543 164.767 18.1312 164.629 18.1312ZM162.835 20.6358C162.711 21.3709 162.127 21.8644 161.383 21.8644C161.01 21.8644 160.71 21.7446 160.518 21.5175C160.328 21.292 160.257 20.9709 160.317 20.6134C160.433 19.8845 161.026 19.375 161.759 19.375C162.124 19.375 162.421 19.4962 162.617 19.7253C162.814 19.9568 162.892 20.2798 162.835 20.6358Z" fill="#179BD7"/>
</g>
<g filter="url(#filter3_dd_228_720)">
<rect x="185.843" y="5" width="46.6143" height="30.0304" rx="5.37857" fill="white"/>
<rect x="185.731" y="4.88795" width="46.8384" height="30.2545" rx="5.49062" stroke="#D6DCE5" stroke-width="0.224107"/>
<path d="M200.92 16.0816C201.231 15.6926 201.442 15.1703 201.386 14.6366C200.931 14.6592 200.375 14.9369 200.054 15.3262C199.765 15.6596 199.509 16.2038 199.576 16.7151C200.087 16.7594 200.598 16.4597 200.92 16.0816Z" fill="#000008"/>
<path d="M201.38 16.8149C200.638 16.7707 200.007 17.2362 199.653 17.2362C199.298 17.2362 198.755 16.8372 198.168 16.848C197.404 16.8592 196.696 17.2912 196.308 17.9782C195.51 19.3527 196.097 21.3915 196.873 22.5109C197.249 23.0647 197.703 23.6745 198.301 23.6526C198.866 23.6304 199.088 23.2867 199.775 23.2867C200.461 23.2867 200.66 23.6526 201.259 23.6415C201.879 23.6304 202.267 23.0874 202.643 22.5331C203.075 21.9018 203.252 21.2922 203.263 21.2587C203.252 21.2476 202.067 20.7931 202.056 19.43C202.045 18.2887 202.986 17.7459 203.031 17.7122C202.499 16.9259 201.668 16.8372 201.38 16.8149Z" fill="#000008"/>
<path d="M207.842 15.2704C209.455 15.2704 210.579 16.3823 210.579 18.0011C210.579 19.6257 209.432 20.7434 207.802 20.7434H206.016V23.5836H204.726V15.2704L207.842 15.2704ZM206.016 19.6603H207.497C208.62 19.6603 209.259 19.0555 209.259 18.0069C209.259 16.9585 208.62 16.3593 207.502 16.3593H206.016V19.6603Z" fill="#000008"/>
<path d="M210.916 21.8611C210.916 20.801 211.728 20.15 213.169 20.0693L214.828 19.9714V19.5048C214.828 18.8308 214.372 18.4275 213.612 18.4275C212.892 18.4275 212.442 18.7731 212.333 19.3147H211.158C211.227 18.22 212.16 17.4135 213.658 17.4135C215.127 17.4135 216.066 18.1912 216.066 19.4068V23.5836H214.874V22.5869H214.845C214.494 23.261 213.727 23.6873 212.932 23.6873C211.745 23.6873 210.916 22.9499 210.916 21.8611ZM214.828 21.3138V20.8356L213.335 20.9278C212.592 20.9797 212.172 21.308 212.172 21.8265C212.172 22.3565 212.61 22.7022 213.278 22.7022C214.148 22.7022 214.828 22.103 214.828 21.3138Z" fill="#000008"/>
<path d="M217.192 25.8132V24.8049C217.284 24.8279 217.491 24.8279 217.595 24.8279C218.171 24.8279 218.482 24.586 218.672 23.9639C218.672 23.9523 218.782 23.5951 218.782 23.5894L216.593 17.523H217.941L219.473 22.4545H219.496L221.029 17.523H222.342L220.072 23.9004C219.554 25.3696 218.955 25.8419 217.699 25.8419C217.595 25.8419 217.284 25.8304 217.192 25.8132Z" fill="#000008"/>
</g>
<g filter="url(#filter4_dd_228_720)">
<rect x="244.457" y="5" width="46.6143" height="30.0304" rx="5.37857" fill="white"/>
<rect x="244.345" y="4.88795" width="46.8384" height="30.2545" rx="5.49062" stroke="#D6DCE5" stroke-width="0.224107"/>
<path d="M266.751 23.6142H265.703V15.4559H268.482C269.186 15.4559 269.787 15.6907 270.279 16.1604C270.781 16.63 271.032 17.2033 271.032 17.8805C271.032 18.574 270.781 19.1473 270.279 19.6115C269.793 20.0757 269.192 20.305 268.482 20.305H266.751V23.6142ZM266.751 16.4607V19.3057H268.504C268.919 19.3057 269.268 19.1637 269.541 18.8852C269.82 18.6067 269.962 18.2682 269.962 17.8859C269.962 17.5091 269.82 17.176 269.541 16.8975C269.268 16.6081 268.924 16.4662 268.504 16.4662H266.751V16.4607Z" fill="#3C4043"/>
<path d="M273.773 17.8477C274.549 17.8477 275.16 18.0552 275.608 18.4702C276.056 18.8852 276.28 19.4531 276.28 20.174V23.6142H275.28V22.8388H275.237C274.805 23.4777 274.226 23.7944 273.506 23.7944C272.889 23.7944 272.375 23.6142 271.96 23.2483C271.545 22.8824 271.338 22.4292 271.338 21.8831C271.338 21.3043 271.556 20.8456 271.993 20.5071C272.43 20.163 273.014 19.9938 273.74 19.9938C274.363 19.9938 274.876 20.1084 275.275 20.3378V20.0975C275.275 19.7316 275.133 19.4258 274.844 19.1692C274.554 18.9125 274.216 18.7869 273.828 18.7869C273.244 18.7869 272.779 19.0327 272.441 19.5296L271.518 18.9508C272.026 18.2136 272.779 17.8477 273.773 17.8477ZM272.419 21.8995C272.419 22.1726 272.534 22.4019 272.768 22.5821C272.998 22.7623 273.271 22.8551 273.582 22.8551C274.024 22.8551 274.418 22.6913 274.762 22.3637C275.106 22.036 275.28 21.6538 275.28 21.2115C274.953 20.9548 274.5 20.8238 273.915 20.8238C273.489 20.8238 273.134 20.9275 272.85 21.1296C272.561 21.3425 272.419 21.5992 272.419 21.8995Z" fill="#3C4043"/>
<path d="M281.981 18.028L278.486 26.0661H277.405L278.704 23.2538L276.4 18.028H277.541L279.201 22.0361H279.223L280.839 18.028H281.981Z" fill="#3C4043"/>
<path d="M262.581 19.6443C262.581 19.3024 262.55 18.9753 262.493 18.6608H258.098V20.4628L260.63 20.4634C260.527 21.063 260.196 21.5741 259.69 21.9148V23.084H261.197C262.077 22.2698 262.581 21.0662 262.581 19.6443Z" fill="#4285F4"/>
<path d="M259.691 21.9149C259.271 22.1977 258.731 22.3632 258.1 22.3632C256.879 22.3632 255.844 21.5408 255.473 20.4323H253.919V21.638C254.689 23.1659 256.271 24.2144 258.1 24.2144C259.363 24.2144 260.425 23.7988 261.197 23.0835L259.691 21.9149Z" fill="#34A853"/>
<path d="M255.327 19.5378C255.327 19.2265 255.378 18.9256 255.473 18.6428V17.4371H253.919C253.6 18.0689 253.421 18.782 253.421 19.5378C253.421 20.2935 253.601 21.0067 253.919 21.6385L255.473 20.4328C255.378 20.1499 255.327 19.849 255.327 19.5378Z" fill="#FABB05"/>
<path d="M258.1 16.7119C258.789 16.7119 259.407 16.9494 259.894 17.4136L261.23 16.0795C260.419 15.3243 259.362 14.8607 258.1 14.8607C256.272 14.8607 254.689 15.9092 253.919 17.4371L255.473 18.6428C255.844 17.5343 256.879 16.7119 258.1 16.7119Z" fill="#E94235"/>
</g>
<defs>
<filter id="filter0_dd_228_720" x="0.811593" y="0.293736" width="64.9911" height="48.4072" filterUnits="userSpaceOnUse" color-interpolation-filters="sRGB">
<feFlood flood-opacity="0" result="BackgroundImageFix"/>
<feColorMatrix in="SourceAlpha" type="matrix" values="0 0 0 0 0 0 0 0 0 0 0 0 0 0 0 0 0 0 127 0" result="hardAlpha"/>
<feOffset dy="0.448214"/>
<feGaussianBlur stdDeviation="2.24107"/>
<feColorMatrix type="matrix" values="0 0 0 0 0.717647 0 0 0 0 0.717647 0 0 0 0 0.717647 0 0 0 0.08 0"/>
<feBlend mode="normal" in2="BackgroundImageFix" result="effect1_dropShadow_228_720"/>
<feColorMatrix in="SourceAlpha" type="matrix" values="0 0 0 0 0 0 0 0 0 0 0 0 0 0 0 0 0 0 127 0" result="hardAlpha"/>
<feOffset dy="4.48214"/>
<feGaussianBlur stdDeviation="4.48214"/>
<feColorMatrix type="matrix" values="0 0 0 0 0.717647 0 0 0 0 0.717647 0 0 0 0 0.717647 0 0 0 0.08 0"/>
<feBlend mode="normal" in2="effect1_dropShadow_228_720" result="effect2_dropShadow_228_720"/>
<feBlend mode="normal" in="SourceGraphic" in2="effect2_dropShadow_228_720" result="shape"/>
</filter>
<filter id="filter1_dd_228_720" x="59.4259" y="0.293736" width="64.9911" height="48.4072" filterUnits="userSpaceOnUse" color-interpolation-filters="sRGB">
<feFlood flood-opacity="0" result="BackgroundImageFix"/>
<feColorMatrix in="SourceAlpha" type="matrix" values="0 0 0 0 0 0 0 0 0 0 0 0 0 0 0 0 0 0 127 0" result="hardAlpha"/>
<feOffset dy="0.448214"/>
<feGaussianBlur stdDeviation="2.24107"/>
<feColorMatrix type="matrix" values="0 0 0 0 0.717647 0 0 0 0 0.717647 0 0 0 0 0.717647 0 0 0 0.08 0"/>
<feBlend mode="normal" in2="BackgroundImageFix" result="effect1_dropShadow_228_720"/>
<feColorMatrix in="SourceAlpha" type="matrix" values="0 0 0 0 0 0 0 0 0 0 0 0 0 0 0 0 0 0 127 0" result="hardAlpha"/>
<feOffset dy="4.48214"/>
<feGaussianBlur stdDeviation="4.48214"/>
<feColorMatrix type="matrix" values="0 0 0 0 0.717647 0 0 0 0 0.717647 0 0 0 0 0.717647 0 0 0 0.08 0"/>
<feBlend mode="normal" in2="effect1_dropShadow_228_720" result="effect2_dropShadow_228_720"/>
<feBlend mode="normal" in="SourceGraphic" in2="effect2_dropShadow_228_720" result="shape"/>
</filter>
<filter id="filter2_dd_228_720" x="118.04" y="0.293736" width="64.9911" height="48.4072" filterUnits="userSpaceOnUse" color-interpolation-filters="sRGB">
<feFlood flood-opacity="0" result="BackgroundImageFix"/>
<feColorMatrix in="SourceAlpha" type="matrix" values="0 0 0 0 0 0 0 0 0 0 0 0 0 0 0 0 0 0 127 0" result="hardAlpha"/>
<feOffset dy="0.448214"/>
<feGaussianBlur stdDeviation="2.24107"/>
<feColorMatrix type="matrix" values="0 0 0 0 0.717647 0 0 0 0 0.717647 0 0 0 0 0.717647 0 0 0 0.08 0"/>
<feBlend mode="normal" in2="BackgroundImageFix" result="effect1_dropShadow_228_720"/>
<feColorMatrix in="SourceAlpha" type="matrix" values="0 0 0 0 0 0 0 0 0 0 0 0 0 0 0 0 0 0 127 0" result="hardAlpha"/>
<feOffset dy="4.48214"/>
<feGaussianBlur stdDeviation="4.48214"/>
<feColorMatrix type="matrix" values="0 0 0 0 0.717647 0 0 0 0 0.717647 0 0 0 0 0.717647 0 0 0 0.08 0"/>
<feBlend mode="normal" in2="effect1_dropShadow_228_720" result="effect2_dropShadow_228_720"/>
<feBlend mode="normal" in="SourceGraphic" in2="effect2_dropShadow_228_720" result="shape"/>
</filter>
<filter id="filter3_dd_228_720" x="176.654" y="0.293736" width="64.9911" height="48.4072" filterUnits="userSpaceOnUse" color-interpolation-filters="sRGB">
<feFlood flood-opacity="0" result="BackgroundImageFix"/>
<feColorMatrix in="SourceAlpha" type="matrix" values="0 0 0 0 0 0 0 0 0 0 0 0 0 0 0 0 0 0 127 0" result="hardAlpha"/>
<feOffset dy="0.448214"/>
<feGaussianBlur stdDeviation="2.24107"/>
<feColorMatrix type="matrix" values="0 0 0 0 0.717647 0 0 0 0 0.717647 0 0 0 0 0.717647 0 0 0 0.08 0"/>
<feBlend mode="normal" in2="BackgroundImageFix" result="effect1_dropShadow_228_720"/>
<feColorMatrix in="SourceAlpha" type="matrix" values="0 0 0 0 0 0 0 0 0 0 0 0 0 0 0 0 0 0 127 0" result="hardAlpha"/>
<feOffset dy="4.48214"/>
<feGaussianBlur stdDeviation="4.48214"/>
<feColorMatrix type="matrix" values="0 0 0 0 0.717647 0 0 0 0 0.717647 0 0 0 0 0.717647 0 0 0 0.08 0"/>
<feBlend mode="normal" in2="effect1_dropShadow_228_720" result="effect2_dropShadow_228_720"/>
<feBlend mode="normal" in="SourceGraphic" in2="effect2_dropShadow_228_720" result="shape"/>
</filter>
<filter id="filter4_dd_228_720" x="235.269" y="0.293736" width="64.9911" height="48.4072" filterUnits="userSpaceOnUse" color-interpolation-filters="sRGB">
<feFlood flood-opacity="0" result="BackgroundImageFix"/>
<feColorMatrix in="SourceAlpha" type="matrix" values="0 0 0 0 0 0 0 0 0 0 0 0 0 0 0 0 0 0 127 0" result="hardAlpha"/>
<feOffset dy="0.448214"/>
<feGaussianBlur stdDeviation="2.24107"/>
<feColorMatrix type="matrix" values="0 0 0 0 0.717647 0 0 0 0 0.717647 0 0 0 0 0.717647 0 0 0 0.08 0"/>
<feBlend mode="normal" in2="BackgroundImageFix" result="effect1_dropShadow_228_720"/>
<feColorMatrix in="SourceAlpha" type="matrix" values="0 0 0 0 0 0 0 0 0 0 0 0 0 0 0 0 0 0 127 0" result="hardAlpha"/>
<feOffset dy="4.48214"/>
<feGaussianBlur stdDeviation="4.48214"/>
<feColorMatrix type="matrix" values="0 0 0 0 0.717647 0 0 0 0 0.717647 0 0 0 0 0.717647 0 0 0 0.08 0"/>
<feBlend mode="normal" in2="effect1_dropShadow_228_720" result="effect2_dropShadow_228_720"/>
<feBlend mode="normal" in="SourceGraphic" in2="effect2_dropShadow_228_720" result="shape"/>
</filter>
</defs>
</svg>
